<?xml version="1.0"?>
<svg xmlns="http://www.w3.org/2000/svg" viewBox="0 0 512 512" width="512" height="512"><g id="Out_line" data-name="Out line"><path d="M480,449.376V216a8.00008,8.00008,0,0,0-8-8H256v16h43.05566l-24,48H228.94434l18.21093-36.42188-14.31054-7.15624L211.05566,272H164.94434l6.21093-12.42188-14.31054-7.15624L147.05566,272H100.94434l6.21093-12.42188-14.31054-7.15624L83.05566,272H36.94434l14.21093-28.42188-14.31054-7.15624-20,40A7.98062,7.98062,0,0,0,16.01459,280H16v16a40.06773,40.06773,0,0,0,32,39.19482V448H40a24,24,0,0,0,0,48H472a23.998,23.998,0,0,0,8-46.624ZM384,288h80V448H384Zm80-16H356.94434l24-48H464ZM96,288h48v8a24,24,0,0,1-48,0Zm64,0h48v8a24,24,0,0,1-48,0Zm64,0h48v8a24,24,0,0,1-48,0Zm64,0h48v8a24,24,0,0,1-48,0Zm28.94434-64h46.11132l-24,48H292.94434ZM32,296v-8H80v8a24,24,0,0,1-48,0Zm32,39.19482a40.06974,40.06974,0,0,0,24-15.22265,39.95835,39.95835,0,0,0,64,0,39.95835,39.95835,0,0,0,64,0,39.95835,39.95835,0,0,0,64,0A39.9861,39.9861,0,0,0,352,296v-8h16V448H144V360a8.00008,8.00008,0,0,0-8-8H88a8.00008,8.00008,0,0,0-8,8v88H64ZM128,448H96V368h32Zm344,32H40a8,8,0,0,1,0-16H472a8,8,0,0,1,0,16Z"/><path d="M168,432H344a8.00008,8.00008,0,0,0,8-8V360a8.00008,8.00008,0,0,0-8-8H168a8.00008,8.00008,0,0,0-8,8v64A8.00008,8.00008,0,0,0,168,432Zm8-64H336v48H176Z"/><path d="M440,352H408a8.00008,8.00008,0,0,0-8,8v56a8.00008,8.00008,0,0,0,8,8h32a8.00008,8.00008,0,0,0,8-8V360A8.00008,8.00008,0,0,0,440,352Zm-8,56H416V368h16Z"/><path d="M128,240h32a112,112,0,0,0,0-224H128a112,112,0,0,0,0,224ZM256,128a96.15032,96.15032,0,0,1-60.16663,89.05713,111.87025,111.87025,0,0,0,0-178.11426A96.15032,96.15032,0,0,1,256,128ZM73.279,49.16943l7.81037,13.53565L94.94775,54.709l-7.8236-13.55859A95.25361,95.25361,0,0,1,120,32.33618V48h16V32.33618a95.25013,95.25013,0,0,1,32.9007,8.82593l-7.82746,13.55664,13.85645,8,7.814-13.53345A96.78978,96.78978,0,0,1,206.8183,73.26147l-13.53363,7.81275,7.999,13.85742,13.55707-7.82642a95.25909,95.25909,0,0,1,8.82379,32.90186l-15.66406-.00122-.001,16,15.66376.00122a95.25726,95.25726,0,0,1-8.82849,32.90039l-13.556-7.82837-8.001,13.85547,13.53284,7.81494a96.78738,96.78738,0,0,1-24.07825,24.073l-7.812-13.53442-13.85742,7.998,7.82532,13.55762A95.25507,95.25507,0,0,1,135.986,223.665l.00226-15.66406-16-.002L119.986,223.6626A95.25679,95.25679,0,0,1,87.08655,214.832L94.916,201.27637l-13.85547-8.002-7.816,13.53223a96.79606,96.79606,0,0,1-24.07129-24.08008L62.709,174.915l-7.99707-13.85742-13.55853,7.82446a95.255,95.255,0,0,1-8.81915-32.90283l15.66431.00317.00292-16L32.338,119.97925a95.25645,95.25645,0,0,1,8.83277-32.89868l13.55535,7.83056L62.729,81.05566,49.19733,73.23877A96.79141,96.79141,0,0,1,73.279,49.16943Z"/><path d="M133.65674,133.65723A8.00076,8.00076,0,0,0,136,128V64H120v60.68652L98.34326,146.34277l11.31348,11.31446Z"/></g></svg>
